<?xml version="1.0" standalone="no"?>
<!DOCTYPE svg PUBLIC "-//W3C//DTD SVG 20010904//EN"
 "http://www.w3.org/TR/2001/REC-SVG-20010904/DTD/svg10.dtd">
<svg version="1.0" xmlns="http://www.w3.org/2000/svg"
 width="500.000000pt" height="333.000000pt" viewBox="0 0 500.000000 333.000000"
 preserveAspectRatio="xMidYMid meet">
<metadata>
Created by potrace 1.16, written by Peter Selinger 2001-2019
</metadata>
<g transform="translate(0.000000,333.000000) scale(0.100000,-0.100000)"
fill="#000000" stroke="none">
<path d="M380 3318 c-44 -16 -60 -38 -60 -82 0 -31 -7 -51 -28 -76 -38 -46
-59 -122 -44 -155 7 -14 16 -25 21 -25 6 0 26 -21 46 -47 32 -42 36 -53 31
-88 -7 -46 3 -62 56 -90 62 -32 163 -172 154 -214 -11 -56 -19 -69 -45 -74
-20 -4 -33 -17 -46 -43 -10 -21 -26 -47 -36 -57 -10 -11 -16 -24 -13 -29 3 -4
0 -8 -5 -8 -6 0 -11 -7 -11 -15 0 -22 37 -18 98 10 28 13 68 27 87 31 28 5 35
11 35 30 0 43 22 37 79 -23 31 -32 61 -67 66 -76 13 -22 49 -13 65 18 11 20 9
30 -8 67 -11 24 -22 62 -25 85 -5 42 -4 43 36 63 63 32 74 42 111 105 22 36
53 70 83 90 26 18 64 49 83 70 33 35 35 39 35 108 -1 67 -4 78 -50 162 -28 50
-58 106 -67 125 -22 47 -43 63 -103 82 -27 9 -79 27 -115 40 -59 23 -79 25
-235 25 -93 0 -181 -4 -195 -9z m116 -216 c28 -18 25 -50 -7 -86 -17 -20 -37
-36 -44 -36 -13 0 -65 55 -65 69 0 5 9 20 21 35 20 26 69 36 95 18z m200 -195
c2 -7 -2 -30 -9 -52 l-14 -40 -79 2 c-95 1 -114 8 -114 39 0 29 37 42 70 24
19 -10 28 -8 58 14 39 28 80 34 88 13z"/>
<path d="M3770 3317 c0 -9 -18 -12 -67 -11 -90 2 -99 -2 -118 -48 -19 -49 -13
-57 24 -35 27 16 29 16 49 -8 12 -14 33 -25 46 -25 33 0 88 -24 110 -49 l19
-21 -62 5 c-33 2 -76 12 -94 21 -31 17 -206 58 -214 51 -2 -2 6 -14 17 -27 25
-29 25 -38 -2 -59 l-21 -18 21 -31 c30 -41 28 -64 -8 -90 -16 -13 -30 -26 -30
-30 0 -4 25 -20 56 -35 49 -24 55 -31 49 -50 -4 -12 -9 -34 -12 -49 -18 -94
-187 30 -238 175 -10 28 -25 66 -34 82 -9 17 -18 47 -21 68 l-5 39 -38 -26
c-21 -14 -52 -26 -70 -26 -51 -1 -86 -22 -110 -65 -12 -22 -30 -41 -39 -43 -9
-2 -40 13 -68 32 -79 55 -141 46 -138 -19 1 -22 6 -35 15 -35 19 0 17 -59 -2
-66 -8 -4 -26 1 -39 9 -13 9 -33 13 -45 10 -16 -4 -23 1 -31 23 -6 16 -16 31
-21 35 -12 7 6 59 21 59 21 0 9 31 -16 40 -69 27 -143 1 -166 -58 -9 -22 -14
-43 -11 -46 9 -9 44 14 38 25 -10 15 20 21 56 11 44 -11 50 -39 12 -49 -15 -4
-46 -7 -68 -7 -36 -1 -47 -8 -116 -76 -41 -41 -90 -93 -107 -114 -30 -38 -31
-41 -14 -59 16 -18 16 -20 -9 -40 -14 -12 -36 -29 -49 -37 -52 -35 -62 -57
-35 -80 21 -18 19 -47 -5 -60 -35 -19 -23 -50 50 -139 11 -13 20 -30 20 -36 0
-7 7 -15 15 -19 8 -3 15 -11 15 -18 0 -7 -28 17 -63 52 -89 94 -126 122 -140
110 -7 -6 -20 -16 -31 -23 -10 -8 -19 -28 -21 -48 l-2 -34 -52 2 c-41 1 -53
-2 -58 -15 -3 -9 -15 -27 -27 -40 -17 -20 -21 -37 -21 -102 -1 -67 -4 -83 -22
-102 -18 -19 -20 -26 -9 -40 8 -11 26 -18 45 -18 43 0 71 -16 71 -41 0 -28
-33 -61 -54 -53 -20 7 -66 -3 -66 -15 0 -5 21 -31 46 -57 77 -81 123 -164 105
-191 -8 -14 -87 -53 -105 -53 -8 0 -35 -16 -60 -35 -32 -24 -57 -35 -80 -35
-37 0 -42 -7 -50 -72 -6 -48 5 -49 76 -7 97 57 133 62 248 31 71 -19 77 -19
105 -4 20 12 41 39 62 83 20 42 45 76 70 95 35 27 45 29 121 29 98 0 113 -11
131 -96 6 -27 20 -71 32 -96 12 -27 18 -54 14 -67 -3 -11 -10 -59 -14 -106 -5
-47 -12 -97 -16 -112 l-7 -28 86 0 c76 0 95 -4 151 -30 35 -16 68 -30 72 -30
5 0 17 17 28 37 11 20 55 75 98 122 72 79 85 89 171 127 101 44 147 70 215
122 55 42 65 41 261 -22 80 -26 188 -57 242 -71 53 -13 107 -29 120 -36 12 -7
48 -14 78 -16 30 -1 66 -4 80 -6 26 -4 104 -49 115 -66 9 -15 110 -73 175
-100 30 -13 100 -45 155 -71 172 -82 198 -92 259 -107 33 -7 88 -29 123 -47
l63 -34 0 174 c0 167 -1 174 -20 174 -13 0 -20 7 -20 19 0 14 5 18 20 14 20
-5 20 0 20 662 l0 667 -45 57 c-52 68 -140 150 -164 153 -71 6 -112 9 -149 8
-39 0 -43 2 -40 21 5 33 32 46 62 30 31 -17 116 -10 150 13 14 9 49 51 77 94
49 72 84 112 98 112 4 0 7 34 6 75 l0 75 -207 0 -208 0 10 -26 c15 -38 13
-287 -2 -302 -7 -7 -29 -12 -50 -12 -32 0 -46 7 -78 40 -46 46 -48 55 -20 70
11 6 20 15 20 19 0 14 -80 -8 -118 -31 l-33 -20 -24 22 c-15 14 -41 24 -72 28
-54 6 -89 25 -98 53 -8 25 -25 25 -25 0 0 -11 -9 -23 -20 -26 -11 -4 -28 -18
-37 -31 -12 -19 -18 -22 -24 -12 -7 10 -9 10 -9 1 0 -7 -7 -13 -15 -13 -9 0
-33 -9 -55 -20 -22 -11 -51 -20 -65 -20 -21 0 -25 5 -25 30 0 26 5 31 40 40
22 6 40 15 40 21 0 12 49 59 63 59 21 0 -15 27 -54 40 -24 8 -54 29 -73 52
-33 38 -86 54 -86 25z m-550 -211 c-1 -5 4 -13 12 -17 10 -7 9 -9 -4 -9 -10 0
-18 -6 -19 -12 0 -7 -4 -2 -10 10 -5 13 -6 28 -3 33 7 12 26 7 24 -5z m20 -91
c0 -17 -16 -35 -32 -35 -10 0 -30 -11 -44 -25 -21 -21 -54 -34 -54 -22 0 16
38 76 59 93 23 20 27 20 48 7 13 -9 23 -17 23 -18z m349 -36 c38 -14 40 -29 4
-29 -43 0 -73 11 -73 26 0 17 26 18 69 3z m-561 -99 c1 -38 -3 -50 -14 -50
-19 0 -30 28 -16 42 8 8 8 15 1 24 -12 15 -4 34 15 34 8 0 13 -17 14 -50z
m-428 12 c0 -25 -45 -66 -64 -59 -23 9 -19 42 7 60 30 22 57 21 57 -1z m558
-93 c-9 -6 -14 -3 -16 8 -2 8 2 19 10 24 9 6 14 3 16 -8 2 -8 -2 -19 -10 -24z
m-513 -8 c-11 -18 -22 -101 -14 -101 5 0 9 -4 9 -10 0 -25 -31 -6 -45 26 -20
48 -19 71 3 83 22 13 55 14 47 2z m-125 -51 c0 -19 -20 -27 -33 -13 -8 7 11
33 24 33 5 0 9 -9 9 -20z m-96 4 c24 -9 20 -60 -6 -78 -24 -17 -54 -21 -62 -8
-7 11 31 92 43 92 5 0 16 -3 25 -6z m825 -99 c12 -25 21 -54 21 -65 0 -18 -2
-19 -20 -8 -24 15 -44 70 -35 98 3 11 8 20 10 20 1 0 12 -20 24 -45z m205 28
c9 -22 -10 -41 -25 -26 -13 13 -5 43 10 43 5 0 12 -8 15 -17z m-1166 -96 c6
-7 10 -27 10 -44 -1 -18 4 -39 11 -46 9 -11 8 -17 -2 -26 -23 -18 -44 9 -51
65 -8 61 6 83 32 51z m619 -76 c4 -32 2 -41 -10 -41 -17 0 -27 21 -27 59 0 60
28 46 37 -18z m530 51 c18 -12 -7 -56 -35 -60 -26 -4 -28 10 -6 43 18 27 22
29 41 17z m-813 -77 c17 -26 21 -75 7 -90 -11 -14 -36 -106 -33 -126 3 -15
-53 -48 -63 -37 -7 6 31 206 47 246 15 38 21 40 42 7z m1156 -45 c0 -5 -4 -10
-10 -10 -5 0 -10 5 -10 10 0 6 5 10 10 10 6 0 10 -4 10 -10z m1190 -101 c0
-10 -4 -19 -9 -19 -10 0 -21 36 -14 44 10 10 23 -5 23 -25z m-1680 1 c22 -11
49 -20 60 -20 35 0 60 -19 60 -46 0 -35 -22 -39 -67 -12 -21 13 -47 29 -58 36
-11 7 -30 16 -42 22 -26 11 -31 40 -8 40 9 0 33 -9 55 -20z m-190 -34 c0 -23
-35 -11 -38 13 -3 20 -1 21 17 11 12 -6 21 -17 21 -24z m1094 17 c4 -9 0 -23
-9 -32 -13 -14 -17 -14 -32 2 -11 11 -13 17 -5 17 7 0 12 7 12 15 0 20 26 19
34 -2z m-2256 -54 c-2 -6 -8 -10 -13 -10 -5 0 -11 4 -13 10 -2 6 4 11 13 11 9
0 15 -5 13 -11z m1688 -36 c-3 -8 -6 -18 -6 -21 0 -4 -11 -8 -25 -8 -27 -2
-35 22 -14 43 15 15 51 4 45 -14z m930 -55 c4 -6 -4 -21 -19 -34 -15 -13 -27
-28 -27 -34 0 -5 -5 -10 -11 -10 -8 0 -8 -4 1 -15 10 -12 7 -15 -14 -21 -16
-4 -32 -1 -41 6 -14 12 -14 15 0 30 8 9 15 24 15 33 0 17 54 57 77 57 6 0 15
-5 19 -12z m-596 -103 c10 -12 10 -18 0 -30 -11 -13 -15 -13 -21 -3 -11 17
-11 48 0 48 5 0 14 -7 21 -15z m980 -15 c0 -5 -5 -10 -11 -10 -5 0 -7 5 -4 10
3 6 8 10 11 10 2 0 4 -4 4 -10z m-1350 -4 c0 -3 -4 -8 -10 -11 -5 -3 -10 -1
-10 4 0 6 5 11 10 11 6 0 10 -2 10 -4z m350 -96 c-5 -22 -8 -27 -9 -13 -1 21
9 56 14 51 2 -2 0 -19 -5 -38z m530 34 l32 -7 -47 -23 c-38 -18 -51 -20 -66
-11 -17 10 -17 13 -2 29 17 19 33 22 83 12z m-1510 -54 c0 -5 -4 -10 -10 -10
-5 0 -10 5 -10 10 0 6 5 10 10 10 6 0 10 -4 10 -10z m1468 -34 c19 -6 21 -10
11 -22 -39 -48 -81 -37 -58 15 7 16 16 26 19 22 3 -5 15 -12 28 -15z m-172
-154 c-19 -19 -21 -5 -4 35 11 28 12 28 16 4 2 -13 -3 -31 -12 -39z m-154 -74
c2 -50 -1 -70 -14 -85 -17 -21 -32 10 -18 36 6 11 10 24 9 28 -1 4 -1 18 0 31
2 34 21 26 23 -10z m127 -48 c-14 -82 -36 -111 -25 -34 3 26 11 53 16 58 6 6
10 21 10 35 0 13 3 22 6 18 3 -3 0 -38 -7 -77z m601 -149 c0 -24 -7 -46 -17
-56 -16 -16 -17 -16 -30 1 -28 38 -10 94 29 94 14 0 18 -8 18 -39z m-115 -31
c0 -13 -6 -25 -12 -27 -9 -3 -13 6 -13 27 0 21 4 30 13 28 6 -3 12 -15 12 -28z
m-95 -41 c0 -5 -4 -9 -10 -9 -5 0 -10 7 -10 16 0 8 5 12 10 9 6 -3 10 -10 10
-16z"/>
<path d="M3905 3320 c3 -5 8 -10 11 -10 2 0 4 5 4 10 0 6 -5 10 -11 10 -5 0
-7 -4 -4 -10z"/>
<path d="M3935 3320 c-3 -6 2 -13 12 -17 10 -3 21 -8 26 -10 4 -2 7 5 7 16 0
22 -33 30 -45 11z"/>
<path d="M4013 3323 c-23 -9 -14 -33 11 -33 24 0 96 26 96 35 0 6 -91 5 -107
-2z"/>
<path d="M4116 3234 c-9 -24 -2 -26 12 -4 7 11 8 20 3 20 -5 0 -12 -7 -15 -16z"/>
<path d="M3390 3216 c0 -2 7 -6 15 -10 8 -3 15 -1 15 4 0 6 -7 10 -15 10 -8 0
-15 -2 -15 -4z"/>
<path d="M4045 3210 c-17 -7 -15 -9 13 -9 17 -1 32 4 32 9 0 12 -17 12 -45 0z"/>
<path d="M2071 2517 c-6 -6 -11 -19 -11 -29 0 -17 2 -18 30 -3 17 9 30 19 30
24 0 14 -37 20 -49 8z"/>
<path d="M1131 2413 c-18 -65 -16 -73 27 -73 67 0 82 41 31 84 -17 14 -34 26
-39 26 -5 0 -14 -17 -19 -37z"/>
<path d="M360 2269 c0 -5 5 -7 10 -4 6 3 10 8 10 11 0 2 -4 4 -10 4 -5 0 -10
-5 -10 -11z"/>
<path d="M826 2204 c-4 -9 -5 -19 -3 -21 7 -6 57 19 57 29 0 15 -48 8 -54 -8z"/>
<path d="M1772 2178 c-14 -14 -16 -38 -3 -38 10 0 26 39 19 46 -2 2 -10 -2
-16 -8z"/>
<path d="M1505 2073 c-11 -3 -40 -11 -64 -19 -53 -18 -313 -64 -358 -64 -39 0
-41 -12 -9 -59 13 -20 50 -76 81 -126 32 -49 59 -92 61 -94 2 -3 14 5 27 16
12 11 63 48 112 81 111 75 270 224 262 247 -4 9 -18 15 -36 15 -16 0 -35 2
-43 4 -7 2 -22 2 -33 -1z"/>
<path d="M929 1986 c-2 -2 -98 -9 -214 -15 -115 -7 -289 -16 -385 -21 -96 -5
-210 -12 -253 -16 l-77 -6 0 -60 0 -61 73 8 c87 9 114 8 148 -6 22 -8 34 -7
67 10 42 21 301 58 478 68 96 6 144 -11 144 -51 0 -33 -44 -59 -145 -86 -126
-35 -141 -43 -153 -87 -6 -21 -20 -65 -32 -98 -11 -32 -30 -102 -41 -155 -11
-52 -23 -105 -26 -117 l-5 -23 168 0 c93 0 212 -5 264 -10 89 -10 96 -9 111 9
9 11 17 41 18 73 2 71 14 111 60 204 l40 79 -35 63 c-42 78 -187 301 -195 302
-3 0 -8 -2 -10 -4z"/>
<path d="M1577 1714 c-4 -4 10 -22 31 -41 43 -40 57 -25 16 18 -29 30 -36 34
-47 23z"/>
<path d="M1300 1496 c0 -2 7 -7 16 -10 8 -3 12 -2 9 4 -6 10 -25 14 -25 6z"/>
<path d="M1330 1466 c0 -4 6 -14 14 -21 12 -12 15 -12 21 2 3 10 3 14 -1 10
-4 -4 -13 -2 -21 4 -7 6 -13 8 -13 5z"/>
<path d="M1380 1375 c13 -14 26 -23 28 -20 7 7 -29 45 -41 45 -6 0 0 -11 13
-25z"/>
<path d="M1340 1377 c0 -5 61 -73 148 -166 l54 -56 -44 65 c-24 36 -47 73 -51
83 -3 9 -14 17 -24 17 -15 0 -16 2 -3 11 13 9 13 10 0 7 -8 -2 -30 8 -48 20
-17 13 -32 21 -32 19z"/>
<path d="M283 1340 c-12 -5 -26 -16 -31 -26 -8 -14 -17 -16 -48 -10 -62 12
-72 10 -139 -36 -62 -42 -64 -44 -65 -86 0 -37 3 -43 18 -38 9 3 69 22 132 42
63 20 146 44 185 53 62 15 70 19 72 41 1 19 -7 31 -33 48 -36 23 -56 26 -91
12z"/>
<path d="M3011 1204 c-61 -58 -111 -113 -111 -120 0 -8 -4 -14 -10 -14 -5 0
-10 -7 -10 -15 0 -8 -4 -15 -8 -15 -8 0 -32 -43 -32 -55 0 -3 7 -5 15 -5 8 0
15 6 15 14 0 8 9 18 20 21 11 4 20 12 19 18 -4 30 3 44 30 60 16 9 39 34 51
55 12 20 50 63 83 94 34 31 59 60 55 63 -3 4 -56 -42 -117 -101z"/>
<path d="M3440 1266 c-137 -23 -141 -25 -325 -164 -31 -24 -54 -46 -51 -49 3
-3 12 0 20 7 10 8 29 10 55 5 35 -6 43 -3 78 27 21 19 54 45 73 58 19 13 40
28 45 34 33 35 60 48 138 62 48 9 84 20 81 25 -6 11 -17 10 -114 -5z"/>
<path d="M1571 1158 c22 -42 101 -163 130 -199 16 -20 29 -42 29 -48 0 -19 64
-111 78 -111 14 0 13 3 -28 65 -14 22 -31 49 -38 60 -7 11 -27 43 -45 70 -17
28 -31 54 -29 58 1 4 -6 17 -16 27 -10 11 -25 33 -33 48 -14 28 -38 51 -52 52
-4 0 -2 -10 4 -22z"/>
<path d="M1170 1154 c0 -15 13 -27 80 -78 85 -65 203 -184 197 -200 -3 -6 3
-12 13 -12 10 0 16 6 13 13 -3 7 -10 13 -16 13 -6 0 -7 3 -4 7 9 9 48 -27 41
-38 -3 -5 0 -9 6 -9 7 0 31 -20 56 -45 44 -46 65 -59 42 -27 -42 60 -100 119
-160 164 -38 27 -71 55 -76 62 -4 7 -40 39 -81 72 -97 78 -111 88 -111 78z"/>
<path d="M3515 1099 c-57 -9 -97 -28 -92 -43 2 -6 12 -12 23 -13 10 -1 51 -5
89 -9 68 -7 69 -7 40 -20 -16 -7 -50 -14 -75 -14 -25 -1 -54 -5 -65 -10 -41
-16 39 -24 250 -23 211 0 287 10 390 46 31 11 77 13 196 9 103 -3 159 -1 163
6 3 6 -3 13 -14 17 -11 3 -20 10 -20 14 0 18 -67 35 -129 33 -45 -2 -79 -10
-110 -27 -85 -43 -289 -52 -366 -15 -23 11 -51 20 -62 20 -11 0 -40 7 -64 16
-54 20 -90 23 -154 13z"/>
<path d="M3040 1034 c0 -5 -11 -22 -25 -38 -31 -37 -31 -44 0 -52 33 -8 43 2
23 23 -15 14 -15 18 -1 40 9 13 13 26 9 30 -3 3 -6 2 -6 -3z"/>
<path d="M4480 1030 c0 -5 9 -10 20 -10 11 0 20 5 20 10 0 6 -9 10 -20 10 -11
0 -20 -4 -20 -10z"/>
<path d="M1134 911 c11 -11 23 -21 28 -21 14 0 -1 19 -25 31 -22 12 -22 12 -3
-10z"/>
<path d="M1627 883 c-3 -5 3 -14 13 -21 15 -9 21 -8 32 5 11 14 11 16 -3 11
-9 -4 -21 -2 -27 4 -5 5 -12 6 -15 1z"/>
<path d="M1681 787 c-12 -30 -3 -41 18 -23 10 9 25 16 35 16 28 0 12 24 -18
27 -20 1 -29 -4 -35 -20z"/>
<path d="M1106 772 c35 -22 57 -49 33 -40 -10 4 -15 -1 -15 -12 0 -10 4 -16 9
-13 5 3 13 0 17 -7 6 -9 12 -9 29 -1 17 9 21 9 19 -1 -2 -7 -10 -16 -18 -20
-8 -5 0 -5 19 -2 21 4 31 2 27 -4 -6 -10 -96 -27 -136 -24 -21 1 -20 -1 10
-15 24 -11 86 -18 203 -23 160 -7 169 -9 202 -34 19 -15 40 -24 47 -20 7 5 9
2 6 -8 -4 -9 0 -15 8 -15 18 0 17 7 -1 31 -18 24 -19 38 -2 34 6 -1 30 2 52 6
71 14 85 62 33 115 -28 29 -33 31 -44 17 -6 -9 -13 -13 -17 -10 -8 9 -77 12
-72 3 10 -15 -10 -17 -72 -10 -34 4 -60 4 -57 -1 3 -4 11 -8 19 -8 8 0 28 -13
45 -28 l30 -28 -24 -14 c-51 -27 -192 22 -286 100 -25 21 -56 41 -70 44 -22 7
-21 5 6 -12z"/>
<path d="M1406 775 c-7 -20 24 -36 47 -23 15 7 16 12 6 24 -15 18 -45 18 -53
-1z"/>
<path d="M1730 753 c0 -10 5 -25 10 -33 8 -12 11 -13 19 -1 12 18 2 51 -15 51
-8 0 -14 -8 -14 -17z"/>
<path d="M1720 690 c0 -5 5 -10 10 -10 6 0 10 5 10 10 0 6 -4 10 -10 10 -5 0
-10 -4 -10 -10z"/>
<path d="M3608 643 c6 -2 18 -2 25 0 6 3 1 5 -13 5 -14 0 -19 -2 -12 -5z"/>
<path d="M1910 542 c0 -12 19 -26 26 -19 2 2 -2 10 -11 17 -9 8 -15 8 -15 2z"/>
<path d="M1635 420 c-17 -7 -15 -9 13 -9 17 -1 32 4 32 9 0 12 -17 12 -45 0z"/>
</g>
</svg>
